<?xml version="1.0" encoding="utf-8"?>
<!-- Generator: Adobe Illustrator 24.0.0, SVG Export Plug-In . SVG Version: 6.00 Build 0)  -->
<svg version="1.1" baseProfile="tiny" id="Livello_1"
	 xmlns="http://www.w3.org/2000/svg" xmlns:xlink="http://www.w3.org/1999/xlink" x="0px" y="0px" viewBox="0 0 171.6 29"
	 xml:space="preserve">
<path fill="#2C6BF6" d="M14.5,29v-5.6c4.9,0,8.9-4,8.9-8.9c0-1.1-0.2-2.2-0.6-3.2c-0.8-2.3-2.7-4.2-5-5C13.1,4.5,8,6.7,6.2,11.3
	c-0.4,1-0.6,2.1-0.6,3.2H0C0,6.5,6.6,0,14.6,0c1.5,0,3,0.3,4.5,0.7c4.4,1.4,7.8,4.8,9.1,9.1c2.5,7.6-1.6,15.8-9.2,18.4
	C17.5,28.7,16,29,14.5,29L14.5,29z"/>
<polygon fill-rule="evenodd" fill="#2C6BF6" points="14.5,23.4 8.9,23.4 8.9,17.8 8.9,17.8 14.5,17.8 14.5,17.8 "/>
<polygon fill-rule="evenodd" fill="#2C6BF6" points="8.9,27.7 4.6,27.7 4.6,27.7 4.6,23.4 8.9,23.4 "/>
<polygon fill-rule="evenodd" fill="#2C6BF6" points="4.6,23.4 1,23.4 1,23.4 1,19.8 1,19.8 4.6,19.8 4.6,19.8 "/>
<path fill="#2C6BF6" d="M51.5,8.4c-1.8-1.2-4-1.8-6.1-1.7h-5.2v16.6h5.2c2.2,0.1,4.3-0.6,6.1-1.8c0.9-0.7,1.7-1.6,2.1-2.7
	c1-2.5,1-5.3,0-7.8C53.2,10,52.4,9.1,51.5,8.4z M43.2,9.5h1.7c1.6-0.1,3.1,0.3,4.5,1c1.4,1,2.1,2.6,1.9,4.3c0.2,1.7-0.5,3.4-1.9,4.5
	l0,0c-1.4,0.8-2.9,1.2-4.5,1.1h-1.7L43.2,9.5z"/>
<path fill="#2C6BF6" d="M58,6.5c-0.5,0-1,0.2-1.3,0.5c-0.4,0.3-0.5,0.8-0.5,1.3c0,0.5,0.2,1,0.5,1.3c0.3,0.4,0.8,0.5,1.3,0.5
	c0.5,0,1-0.2,1.3-0.5c0.4-0.3,0.6-0.8,0.6-1.3c0-0.5-0.2-1-0.6-1.3C58.9,6.7,58.5,6.5,58,6.5z"/>
<rect x="56.5" y="11.6" fill="#2C6BF6" width="2.9" height="11.7"/>
<path fill="#2C6BF6" d="M70.2,12.6c-0.8-0.8-1.8-1.2-2.9-1.3c-1.5,0-3,0.6-4,1.7c-1.1,1.1-1.6,2.6-1.6,4.2c0,1.6,0.5,3.1,1.6,4.2
	c1.1,1.1,2.5,1.7,4,1.7c1.1,0,2.1-0.3,2.9-0.9v0.3c0.1,0.8-0.2,1.6-0.8,2.3c-0.6,0.5-1.3,0.8-2.1,0.8c-1.4,0-2.6-0.8-3.3-2l-2,1.9
	v0.1c0.5,0.7,1.2,1.3,2,1.8c1,0.6,2.1,0.9,3.3,0.9c1.6,0.1,3.1-0.5,4.2-1.6c1.1-1.1,1.7-2.7,1.6-4.3V11.6h-2.9L70.2,12.6L70.2,12.6z
	 M69.4,19.5c-0.5,0.6-1.3,0.9-2,0.9c-0.8,0-1.5-0.3-2-0.9c-1-1.4-1-3.2,0-4.6c1-1.1,2.7-1.2,3.8-0.2c0.1,0.1,0.1,0.1,0.2,0.2
	c0.5,0.6,0.8,1.5,0.8,2.3C70.2,18,69.9,18.8,69.4,19.5L69.4,19.5z"/>
<rect x="75.5" y="11.6" fill="#2C6BF6" width="2.9" height="11.7"/>
<path fill="#2C6BF6" d="M77.1,6.5c-0.5,0-1,0.2-1.3,0.5c-0.4,0.3-0.6,0.8-0.5,1.3c0,0.5,0.2,1,0.5,1.3c0.3,0.4,0.8,0.5,1.3,0.5
	c0.5,0,1-0.2,1.3-0.5c0.3-0.3,0.5-0.8,0.5-1.3c0-0.5-0.2-1-0.5-1.3C78,6.7,77.6,6.5,77.1,6.5z"/>
<path fill="#2C6BF6" d="M85,8.5h-2.9v3.2h-1.7v2.7h1.7v4.9c-0.1,1.2,0.2,2.3,0.9,3.2c0.9,0.7,2,1.1,3.2,0.9h1.6v-2.7h-1
	c-0.5,0.1-1,0-1.4-0.3c-0.3-0.5-0.4-1-0.3-1.5v-4.5h2.8v-2.7H85L85,8.5L85,8.5z"/>
<rect x="101.5" y="6.7" fill="#2C6BF6" width="2.9" height="16.6"/>
<path fill="#2C6BF6" d="M134.2,19.1c-0.4,0.5-0.9,1-1.5,1.4l0,0c-0.5,0.3-1,0.4-1.5,0.4c-0.8,0-1.6-0.3-2.1-1
	c-1.1-1.5-1.1-3.5,0-4.9c0.5-0.6,1.3-1,2.1-1c1.1,0.1,2.1,0.7,2.8,1.6l1.9-1.9l0,0c-1.9-2.7-5.7-3.2-8.3-1.3c0,0,0,0,0,0
	c-0.3,0.2-0.5,0.4-0.7,0.6c-2.3,2.5-2.3,6.3,0,8.8c1.1,1.1,2.6,1.8,4.2,1.7c2,0.1,3.9-0.9,5-2.6L134.2,19.1z"/>
<path fill="#2C6BF6" d="M146.3,13.2c-0.4-0.6-1-1.1-1.7-1.4c-0.8-0.3-1.6-0.5-2.4-0.5c-1.5-0.1-3,0.6-4,1.8c-1,1.2-1.5,2.8-1.5,4.4
	c-0.1,1.6,0.5,3.2,1.6,4.4c1.1,1.1,2.7,1.7,4.3,1.7c1.9,0,3.7-0.9,4.8-2.4v-0.1l-1.9-1.9l0,0c-0.2,0.2-0.4,0.5-0.7,0.7
	c-0.2,0.3-0.5,0.5-0.9,0.6c-0.5,0.2-1,0.3-1.5,0.3c-0.7,0-1.5-0.2-2-0.7c-0.5-0.5-0.8-1.1-0.8-1.8h7.8v-1.1c0-0.7-0.1-1.5-0.3-2.2
	C147,14.4,146.7,13.8,146.3,13.2z M139.9,16c0.1-0.5,0.4-1,0.8-1.4c0.4-0.4,1-0.6,1.6-0.6c0.6,0,1.2,0.2,1.6,0.6
	c0.3,0.4,0.6,0.9,0.6,1.4L139.9,16L139.9,16z"/>
<path fill="#2C6BF6" d="M157.6,12.5L157.6,12.5c-1-0.8-2.3-1.2-3.7-1.1c-0.9,0-1.9,0.2-2.7,0.6c-0.8,0.4-1.5,1.1-2,1.9l0,0l1.9,1.8
	c0.5-1,1.6-1.7,2.8-1.7c0.5,0,1.1,0.2,1.5,0.5c0.4,0.3,0.6,0.8,0.6,1.3v0.6c-0.7-0.2-1.4-0.3-2.2-0.3c-1.3-0.1-2.5,0.3-3.6,1
	c-0.9,0.7-1.3,1.8-1.3,2.9c0,1,0.4,2,1.1,2.7c0.8,0.6,1.8,1,2.8,1c1.1,0,2.3-0.5,3.1-1.2v1h2.9v-7.5
	C159.1,14.5,158.6,13.3,157.6,12.5z M152.5,18.8c0.4-0.3,0.9-0.4,1.4-0.3c0.8,0,1.5,0.2,2.2,0.4v1.1c-0.7,0.6-1.6,0.9-2.6,0.9
	c-0.4,0-0.8-0.1-1.2-0.3c-0.3-0.2-0.4-0.5-0.4-0.9C151.9,19.4,152.1,19,152.5,18.8L152.5,18.8z"/>
<path fill="#2C6BF6" d="M170.3,12.7c-0.9-1-2.1-1.5-3.4-1.4c-1,0-2.1,0.3-2.8,1v-0.7h-2.9v11.7h2.9v-6.4c-0.1-0.8,0.2-1.5,0.6-2.1
	c0.4-0.5,1.1-0.8,1.8-0.7c0.6,0,1.2,0.2,1.5,0.7c0.4,0.5,0.6,1.2,0.6,1.8v6.8h2.9v-6.8C171.7,15.1,171.2,13.8,170.3,12.7z"/>
<path fill="#2C6BF6" d="M97.8,12.5L97.8,12.5c-1-0.8-2.3-1.3-3.7-1.2c-0.9,0-1.9,0.2-2.7,0.6c-0.8,0.4-1.5,1.1-2,1.9l0,0l1.9,1.8
	c0.5-1,1.6-1.7,2.8-1.7c0.5,0,1.1,0.2,1.5,0.5c0.4,0.3,0.6,0.8,0.6,1.3v0.6C95.5,16.1,94.8,16,94,16c-1.3-0.1-2.5,0.3-3.6,1
	c-0.9,0.7-1.3,1.8-1.3,2.9c0,1,0.4,2,1.1,2.7c0.8,0.6,1.8,1,2.8,1c1.1,0,2.3-0.5,3.1-1.2v1h2.9v-7.5C99.2,14.5,98.7,13.3,97.8,12.5z
	 M92.7,18.8c0.4-0.3,0.9-0.4,1.4-0.3c0.8,0,1.5,0.1,2.2,0.4v1.1c-0.7,0.6-1.6,0.9-2.6,0.9c-0.4,0-0.8-0.1-1.2-0.3
	c-0.3-0.2-0.4-0.5-0.4-0.9C92.1,19.4,92.3,19,92.7,18.8L92.7,18.8z"/>
<path fill="#2C6BF6" d="M115.2,23.5c-4.7,0-8.6-3.8-8.6-8.6c0-4.7,3.8-8.6,8.6-8.6c4.7,0,8.6,3.8,8.6,8.6c0,0,0,0,0,0v0
	C123.7,19.7,119.9,23.5,115.2,23.5z M115.2,9.4c-3.1,0-5.6,2.5-5.6,5.6s2.5,5.6,5.6,5.6c3.1,0,5.6-2.5,5.6-5.6l0,0
	C120.7,11.9,118.2,9.4,115.2,9.4L115.2,9.4L115.2,9.4z"/>
</svg>
